<mxfile host="app.diagrams.net" modified="2022-11-11T20:38:03.917Z" agent="5.0 (Windows NT 10.0; Win64; x64) AppleWebKit/537.36 (KHTML, like Gecko) Chrome/105.0.0.0 Safari/537.36 OPR/91.0.4516.106" etag="L2eNOdFYsoz97lUjR31r" version="20.5.3" type="github">
  <diagram id="IbmSEpdKzx_lTTjACskX" name="Page-1">
    <mxGraphModel dx="997" dy="571" grid="1" gridSize="10" guides="1" tooltips="1" connect="1" arrows="1" fold="1" page="1" pageScale="1" pageWidth="827" pageHeight="1169" math="0" shadow="0">
      <root>
        <mxCell id="0" />
        <mxCell id="1" parent="0" />
        <mxCell id="LIBatzkbfqNzyojiQpuy-1" value="" style="rounded=0;whiteSpace=wrap;html=1;" vertex="1" parent="1">
          <mxGeometry x="130" y="270" width="120" height="60" as="geometry" />
        </mxCell>
        <mxCell id="LIBatzkbfqNzyojiQpuy-2" value="Link" style="text;html=1;strokeColor=none;fillColor=none;align=center;verticalAlign=middle;whiteSpace=wrap;rounded=0;" vertex="1" parent="1">
          <mxGeometry x="160" y="285" width="60" height="30" as="geometry" />
        </mxCell>
        <mxCell id="LIBatzkbfqNzyojiQpuy-3" value="" style="dashed=0;outlineConnect=0;html=1;align=center;labelPosition=center;verticalLabelPosition=bottom;verticalAlign=top;shape=mxgraph.weblogos.paypal" vertex="1" parent="1">
          <mxGeometry x="390" y="270" width="51.2" height="58" as="geometry" />
        </mxCell>
        <mxCell id="LIBatzkbfqNzyojiQpuy-5" value="" style="endArrow=classic;html=1;rounded=0;exitX=1;exitY=0.5;exitDx=0;exitDy=0;" edge="1" parent="1" source="LIBatzkbfqNzyojiQpuy-1" target="LIBatzkbfqNzyojiQpuy-3">
          <mxGeometry width="50" height="50" relative="1" as="geometry">
            <mxPoint x="390" y="320" as="sourcePoint" />
            <mxPoint x="440" y="270" as="targetPoint" />
          </mxGeometry>
        </mxCell>
        <mxCell id="LIBatzkbfqNzyojiQpuy-6" value="" style="endArrow=classic;html=1;rounded=0;" edge="1" parent="1" source="LIBatzkbfqNzyojiQpuy-3">
          <mxGeometry width="50" height="50" relative="1" as="geometry">
            <mxPoint x="390" y="320" as="sourcePoint" />
            <mxPoint x="490" y="292.58620689655174" as="targetPoint" />
          </mxGeometry>
        </mxCell>
        <mxCell id="LIBatzkbfqNzyojiQpuy-8" value="" style="points=[];aspect=fixed;html=1;align=center;shadow=0;dashed=0;image;image=img/lib/allied_telesis/computer_and_terminals/Personal_Computer.svg;" vertex="1" parent="1">
          <mxGeometry x="510" y="210" width="45.6" height="61.800000000000004" as="geometry" />
        </mxCell>
        <mxCell id="LIBatzkbfqNzyojiQpuy-9" value="One-time&amp;nbsp;&lt;br&gt;Code" style="text;html=1;strokeColor=none;fillColor=none;align=center;verticalAlign=middle;whiteSpace=wrap;rounded=0;" vertex="1" parent="1">
          <mxGeometry x="495.6" y="284" width="60" height="30" as="geometry" />
        </mxCell>
        <mxCell id="LIBatzkbfqNzyojiQpuy-10" value="" style="endArrow=classic;html=1;rounded=0;exitX=0.982;exitY=0.693;exitDx=0;exitDy=0;exitPerimeter=0;" edge="1" parent="1" source="LIBatzkbfqNzyojiQpuy-8">
          <mxGeometry width="50" height="50" relative="1" as="geometry">
            <mxPoint x="390" y="310" as="sourcePoint" />
            <mxPoint x="600" y="340" as="targetPoint" />
          </mxGeometry>
        </mxCell>
        <mxCell id="LIBatzkbfqNzyojiQpuy-11" value="Packege download and instructos" style="text;html=1;strokeColor=none;fillColor=none;align=center;verticalAlign=middle;whiteSpace=wrap;rounded=0;" vertex="1" parent="1">
          <mxGeometry x="560" y="350" width="60" height="30" as="geometry" />
        </mxCell>
        <mxCell id="LIBatzkbfqNzyojiQpuy-12" value="" style="endArrow=classic;html=1;rounded=0;" edge="1" parent="1" source="LIBatzkbfqNzyojiQpuy-3">
          <mxGeometry width="50" height="50" relative="1" as="geometry">
            <mxPoint x="390" y="290" as="sourcePoint" />
            <mxPoint x="400" y="150" as="targetPoint" />
          </mxGeometry>
        </mxCell>
        <mxCell id="LIBatzkbfqNzyojiQpuy-15" value="" style="endArrow=classic;html=1;rounded=0;" edge="1" parent="1">
          <mxGeometry width="50" height="50" relative="1" as="geometry">
            <mxPoint x="360" y="130" as="sourcePoint" />
            <mxPoint x="310" y="100" as="targetPoint" />
          </mxGeometry>
        </mxCell>
        <mxCell id="LIBatzkbfqNzyojiQpuy-16" value="" style="endArrow=classic;html=1;rounded=0;" edge="1" parent="1">
          <mxGeometry width="50" height="50" relative="1" as="geometry">
            <mxPoint x="430" y="130" as="sourcePoint" />
            <mxPoint x="450" y="90" as="targetPoint" />
          </mxGeometry>
        </mxCell>
        <mxCell id="LIBatzkbfqNzyojiQpuy-18" value="50%" style="text;html=1;strokeColor=none;fillColor=none;align=center;verticalAlign=middle;whiteSpace=wrap;rounded=0;" vertex="1" parent="1">
          <mxGeometry x="400" y="120" width="60" height="30" as="geometry" />
        </mxCell>
        <mxCell id="LIBatzkbfqNzyojiQpuy-19" value="50%" style="text;html=1;strokeColor=none;fillColor=none;align=center;verticalAlign=middle;whiteSpace=wrap;rounded=0;" vertex="1" parent="1">
          <mxGeometry x="354" y="120" width="60" height="30" as="geometry" />
        </mxCell>
        <mxCell id="LIBatzkbfqNzyojiQpuy-20" value="Dogeweb team" style="text;html=1;strokeColor=none;fillColor=none;align=center;verticalAlign=middle;whiteSpace=wrap;rounded=0;" vertex="1" parent="1">
          <mxGeometry x="260" y="70" width="60" height="30" as="geometry" />
        </mxCell>
        <mxCell id="LIBatzkbfqNzyojiQpuy-21" value="You" style="text;html=1;strokeColor=none;fillColor=none;align=center;verticalAlign=middle;whiteSpace=wrap;rounded=0;" vertex="1" parent="1">
          <mxGeometry x="435.6" y="60" width="60" height="30" as="geometry" />
        </mxCell>
      </root>
    </mxGraphModel>
  </diagram>
</mxfile>
